<?xml version="1.0" standalone="no"?>
<!DOCTYPE svg PUBLIC "-//W3C//DTD SVG 20010904//EN"
 "http://www.w3.org/TR/2001/REC-SVG-20010904/DTD/svg10.dtd">
<svg version="1.0" xmlns="http://www.w3.org/2000/svg"
 width="256.000000pt" height="256.000000pt" viewBox="0 0 256.000000 256.000000"
 preserveAspectRatio="xMidYMid meet">

<g transform="translate(0.000000,256.000000) scale(0.100000,-0.100000)"
fill="#000000" stroke="none">
<path d="M1175 2440 c-209 -15 -419 -97 -604 -236 -82 -62 -214 -198 -256
-265 -44 -70 -69 -101 -61 -76 7 21 -3 22 -18 2 -6 -8 -26 -16 -44 -18 -29 -3
-37 -10 -52 -45 -11 -23 -17 -42 -14 -42 2 0 -3 -11 -11 -24 -14 -21 -14 -24
1 -30 11 -4 15 -2 11 8 -3 8 0 20 8 26 10 8 16 7 23 -6 8 -14 10 -15 15 0 4 9
-2 21 -14 29 -22 16 -16 49 7 40 9 -3 13 -12 9 -21 -3 -8 3 -21 14 -29 29 -20
10 -59 -27 -58 -18 0 -27 -6 -28 -18 -1 -10 0 -11 3 -3 2 8 12 12 24 9 21 -6
21 -7 3 -78 -5 -18 -4 -19 6 -2 6 10 14 30 16 45 3 14 11 30 17 34 7 4 8 8 4
8 -4 0 5 24 21 53 50 89 56 102 57 108 0 9 132 182 169 222 19 20 42 37 50 37
9 0 16 7 16 15 0 8 5 15 10 15 5 0 18 8 28 18 10 9 44 35 77 57 33 22 62 42
65 45 3 3 36 20 73 38 113 53 309 102 412 102 l51 0 -2 -50 c-1 -27 2 -50 7
-50 5 0 9 23 9 50 l0 50 60 0 59 0 -4 -65 c-3 -39 -1 -65 5 -65 6 0 10 29 10
65 0 61 1 65 23 65 38 0 199 -37 257 -59 99 -37 330 -164 330 -181 0 -3 -28
-35 -63 -72 l-62 -67 -45 30 c-25 17 -74 46 -110 64 -310 155 -653 135 -952
-57 -44 -27 -66 -48 -35 -33 6 4 3 0 -7 -9 -10 -8 -23 -13 -29 -9 -6 3 -7 1
-3 -5 7 -11 -7 -16 -41 -15 -7 1 -13 -8 -13 -18 0 -10 -5 -19 -10 -19 -6 0 -9
6 -8 13 2 7 -5 11 -17 10 -11 -1 -14 0 -7 3 21 10 13 22 -14 22 -15 0 -38 12
-57 30 -22 21 -37 28 -46 23 -18 -12 -1 -63 25 -75 11 -5 28 -26 38 -47 11
-21 27 -41 38 -44 10 -4 18 -11 18 -18 0 -8 3 -8 12 1 14 14 32 16 24 3 -3 -5
1 -11 9 -15 8 -3 15 -10 15 -16 0 -6 -4 -8 -10 -5 -5 3 -10 4 -10 1 0 -3 15
-12 33 -20 17 -7 46 -27 64 -42 17 -16 40 -34 50 -41 17 -11 17 -12 -2 -13
-15 -1 -12 -4 13 -15 17 -8 32 -21 32 -30 0 -9 5 -13 10 -10 6 3 10 -1 10 -9
0 -21 36 -56 58 -56 14 0 15 2 2 10 -9 6 -10 10 -3 10 7 0 17 -9 24 -21 10
-19 8 -20 -10 -14 -12 3 -21 3 -21 -2 1 -17 87 -94 108 -96 12 -1 22 -5 22 -9
0 -3 8 -7 18 -7 9 0 28 -2 42 -3 25 -3 25 -3 26 87 0 77 0 80 -3 17 -3 -61 -7
-73 -20 -70 -9 2 -15 6 -12 9 2 3 -2 13 -9 22 -8 9 -11 21 -7 27 3 5 -2 10
-12 10 -22 0 -127 103 -116 114 4 4 1 5 -7 1 -10 -3 -59 39 -143 123 l-129
129 44 35 c47 39 87 44 99 12 4 -10 48 -59 98 -108 64 -62 95 -86 107 -82 9 4
23 1 30 -5 10 -8 14 -9 14 0 0 8 5 8 18 0 11 -7 19 -25 20 -44 1 -17 6 -42 11
-56 11 -28 10 -43 17 271 3 120 9 197 15 201 17 10 170 19 212 13 22 -4 37
-12 37 -21 0 -8 -5 -11 -11 -7 -8 4 -8 1 -1 -12 5 -11 9 -41 8 -69 -1 -49 -2
-50 -31 -48 -16 1 -22 -1 -12 -3 9 -3 17 -10 17 -15 0 -5 7 -9 16 -9 14 0 14
-3 4 -15 -8 -9 -9 -15 -2 -15 11 0 16 -148 6 -175 -3 -7 -13 -11 -22 -9 -14 5
-13 3 2 -10 16 -13 19 -31 21 -123 2 -134 0 -141 -31 -135 -13 2 -24 8 -24 13
0 5 -5 9 -11 9 -5 0 -7 -4 -4 -10 8 -13 -11 -13 -36 0 -23 13 -25 30 -4 30 12
0 13 4 4 18 -15 24 -59 27 -60 4 -1 -9 -3 -30 -5 -45 -2 -24 0 -28 14 -22 13
5 14 4 5 -6 -10 -10 -9 -15 5 -25 15 -12 14 -12 -8 -7 -21 6 -23 4 -13 -9 10
-11 10 -17 0 -27 -9 -9 -9 -14 2 -20 11 -7 11 -9 0 -13 -12 -4 -12 -7 0 -21
25 -32 2 -20 -44 20 -10 10 -14 10 -17 1 -3 -8 -49 -11 -146 -12 -78 -1 -138
0 -132 2 5 2 10 10 10 18 0 9 5 12 10 9 6 -3 10 -1 10 5 0 7 -7 9 -16 6 -9 -3
-20 -6 -25 -6 -5 0 -9 -9 -9 -21 0 -18 -5 -20 -42 -15 -44 5 -104 24 -79 25
28 2 0 15 -39 18 -41 4 -56 -11 -20 -20 11 -3 18 -1 14 4 -3 5 0 9 5 9 6 0 11
-7 11 -15 0 -10 -10 -15 -30 -15 -16 0 -30 4 -30 8 0 5 -12 14 -28 21 -15 7
-24 10 -20 6 19 -19 -25 -34 -105 -37 -71 -3 -84 -1 -82 12 2 8 4 26 4 40 l1
25 232 -2 c127 -1 238 -5 245 -7 17 -7 73 4 73 14 0 5 -9 6 -20 3 -14 -4 -20
0 -20 11 0 9 -4 16 -8 16 -11 0 -127 117 -128 130 -1 5 -2 16 -3 23 -1 8 -4 8
-10 -2 -7 -11 -30 6 -101 77 -51 51 -99 92 -107 92 -8 0 -11 5 -8 10 4 6 10 8
15 5 13 -8 20 9 9 25 -8 13 -13 11 -29 -9 -14 -16 -30 -23 -57 -23 -37 -1 -37
-1 -10 -10 32 -11 33 -17 9 -49 -10 -13 -27 -44 -36 -69 -20 -51 -20 -49 -42
-145 -9 -38 -21 -88 -27 -110 -10 -34 -13 -141 -9 -290 3 -74 102 -317 161
-395 l19 -24 156 151 c85 84 173 161 195 172 26 14 59 21 96 21 l55 0 -27 -30
c-15 -17 -33 -28 -40 -26 -7 3 -13 -1 -13 -9 0 -20 -49 -75 -68 -75 -13 0 -14
-2 -4 -9 20 -12 -6 -20 -43 -14 -19 4 -26 2 -21 -6 4 -6 2 -11 -5 -11 -8 0 -8
-4 1 -15 10 -12 6 -22 -26 -57 -38 -42 -61 -55 -56 -30 1 7 -8 12 -22 12 -14
0 -27 4 -31 10 -3 5 -12 7 -20 4 -8 -4 -12 -10 -9 -16 3 -5 12 -7 20 -4 8 3
14 1 14 -4 0 -6 -7 -10 -15 -10 -8 0 -15 -5 -15 -11 0 -5 5 -7 12 -3 7 4 8 3
4 -4 -4 -7 -1 -12 8 -12 9 0 16 7 16 15 0 8 5 15 10 15 18 0 10 -36 -13 -58
-30 -29 -40 -28 -35 3 3 14 1 25 -3 25 -5 0 -9 9 -9 20 0 21 -7 25 -28 12 -15
-10 -7 -38 14 -46 8 -3 14 -11 14 -17 0 -8 -4 -8 -15 1 -12 10 -15 10 -15 -4
0 -9 5 -16 10 -16 6 0 10 -5 10 -12 0 -9 -3 -9 -12 0 -17 17 -31 15 -24 -3 7
-20 -13 -19 -36 2 -10 9 -21 14 -24 10 -9 -9 67 -87 86 -87 10 0 23 -7 30 -15
7 -8 17 -15 22 -15 5 0 93 82 194 183 102 100 189 183 194 185 6 2 10 -6 10
-18 0 -23 -125 -148 -143 -142 -5 1 -6 -2 -3 -7 4 -5 1 -13 -6 -18 -12 -7 -17
-9 -37 -12 -9 -1 -47 -38 -109 -105 -24 -26 -55 -54 -68 -62 -36 -24 -31 -61
8 -55 4 0 47 -20 95 -45 100 -52 228 -98 250 -90 8 3 11 2 8 -4 -10 -17 34
-31 93 -29 31 1 100 1 152 -1 83 -1 107 2 190 30 94 31 137 48 195 77 17 9 57
29 90 45 58 29 115 73 115 90 0 5 -13 2 -30 -7 -34 -18 -40 -18 -40 -4 0 5 5
7 11 4 6 -4 6 0 -1 12 -7 11 -25 25 -41 32 -16 7 -27 17 -23 22 3 5 9 7 14 4
18 -11 22 18 5 33 -10 10 -15 12 -12 6 4 -7 0 -17 -7 -23 -11 -10 -16 -9 -23
4 -9 15 -11 15 -22 1 -11 -13 -11 -16 3 -16 9 0 16 -4 16 -10 0 -16 -18 -12
-32 8 -7 9 -24 25 -38 34 -42 28 -110 97 -110 113 0 9 -6 12 -16 8 -11 -4 -15
-2 -12 7 4 12 -49 77 -61 73 -4 -1 -8 6 -9 15 -3 33 -8 47 -20 67 -10 16 -11
-6 -7 -114 3 -73 8 -138 11 -143 3 -5 13 -7 21 -4 8 4 11 1 8 -5 -4 -6 -13 -8
-21 -5 -21 8 -20 -280 0 -303 13 -14 11 -16 -16 -17 -16 -1 -25 2 -18 6 7 5 6
11 -6 21 -15 12 -17 12 -9 0 6 -11 2 -13 -18 -9 -15 3 -28 0 -30 -6 -2 -6 -4
7 -4 29 0 22 2 30 4 17 4 -22 23 -32 23 -12 0 6 9 10 20 10 11 0 20 5 20 11 0
5 -4 7 -10 4 -5 -3 -10 -1 -10 4 0 6 5 11 10 11 17 0 12 78 -6 88 -15 8 -15
10 0 15 16 6 22 38 9 50 -3 4 -12 2 -19 -4 -7 -6 -18 -8 -24 -4 -18 11 -11 23
20 30 l31 7 -2 84 c-1 52 -6 90 -15 101 -13 17 -13 17 -14 -4 0 -33 -18 -38
-26 -7 -5 20 -2 31 11 40 17 12 17 14 1 20 -9 3 -15 14 -14 23 5 25 38 44 38
20 0 -5 -6 -7 -12 -3 -7 4 -4 -2 6 -14 24 -28 25 -28 24 9 -1 33 -20 48 -41
31 -9 -8 -13 6 -15 59 -2 51 0 69 10 69 8 0 9 3 3 8 -5 4 -11 14 -11 22 -1 8
-5 28 -9 44 -6 21 -5 27 4 22 19 -12 12 10 -9 29 -11 10 -20 23 -20 29 1 6 16
-6 34 -27 23 -25 36 -34 39 -25 4 10 6 10 6 1 1 -15 47 -18 55 -4 3 5 16 7 28
3 16 -4 19 -2 13 8 -5 9 -4 11 4 6 22 -14 94 -18 86 -6 -5 9 -2 9 11 3 25 -11
63 -10 64 2 0 6 -11 11 -25 13 -23 3 -24 6 -13 19 11 14 11 15 -7 6 -17 -9
-23 -7 -39 14 -18 25 -18 25 0 19 11 -3 25 -2 32 3 11 6 10 11 -3 25 -12 12
-13 16 -3 17 25 2 53 -3 64 -12 7 -5 16 -8 20 -7 5 2 20 -5 34 -14 23 -17 23
-18 6 -31 -19 -14 -15 -37 6 -37 6 0 5 7 -3 17 -12 14 -12 16 1 11 8 -3 15
-14 14 -26 0 -12 3 -19 8 -16 5 3 16 0 24 -7 12 -10 13 -9 7 7 -3 10 -13 30
-22 43 -15 24 -15 24 9 10 35 -19 61 -22 37 -4 -24 17 -4 30 24 15 11 -7 23
-9 26 -6 8 8 -7 26 -23 26 -8 0 -14 5 -14 12 0 6 -10 3 -22 -8 -12 -10 -18
-13 -14 -6 4 6 2 12 -3 12 -6 0 -11 5 -11 11 0 12 56 5 74 -10 7 -6 16 -8 19
-4 4 3 -1 12 -11 20 -15 13 -15 13 8 7 40 -12 65 -10 62 4 -1 8 2 11 8 7 6 -3
8 -11 5 -16 -4 -5 -2 -9 4 -9 5 0 12 4 15 9 7 11 46 2 46 -9 0 -5 -10 -11 -22
-13 l-23 -4 23 -8 c12 -4 22 -11 22 -16 0 -16 -23 -9 -48 13 -22 21 -24 22
-33 5 -6 -9 -14 -15 -20 -12 -10 7 -8 -23 4 -41 5 -9 -3 -10 -30 -3 -44 9 -56
4 -22 -10 13 -5 19 -10 12 -10 -6 -1 -19 -4 -29 -8 -11 -4 -15 -3 -10 5 3 6 2
13 -3 16 -11 7 -9 -13 2 -32 6 -8 14 -9 27 -2 11 6 28 7 42 1 18 -7 193 -7
193 0 0 0 15 2 33 4 25 2 32 -1 32 -16 0 -10 -4 -21 -10 -24 -5 -3 -10 -17
-10 -30 0 -18 -5 -24 -22 -23 -48 1 -78 10 -72 21 3 7 0 5 -8 -4 -11 -12 -42
-16 -77 -10 -3 1 4 8 15 16 10 8 15 14 9 14 -13 0 -46 -25 -40 -30 7 -8 -161
-3 -173 5 -8 5 -10 2 -5 -10 5 -13 2 -15 -18 -9 -13 5 -45 7 -71 6 -33 -1 -48
3 -48 11 0 10 -2 10 -8 1 -5 -8 -37 -11 -90 -11 -80 0 -111 -9 -98 -30 3 -5
17 -13 32 -16 14 -4 35 -16 47 -26 11 -11 26 -19 31 -19 23 3 36 -1 36 -12 0
-5 -4 -7 -10 -4 -5 3 -10 -4 -10 -15 0 -16 4 -20 16 -16 11 4 15 2 11 -8 -6
-16 35 -58 53 -54 7 2 22 -14 34 -36 13 -21 32 -44 44 -50 12 -7 29 -22 38
-35 9 -13 22 -20 30 -17 9 4 14 0 12 -8 -3 -15 97 -126 114 -126 6 0 17 8 24
17 7 10 16 15 20 10 4 -4 -3 -18 -15 -31 -27 -28 -22 -45 11 -39 17 3 35 -8
72 -46 31 -31 54 -47 60 -42 6 5 19 6 28 2 16 -5 14 -11 -17 -46 -21 -25 -30
-42 -22 -44 7 -2 15 -8 18 -14 5 -6 19 -6 40 2 l34 11 -47 -46 -48 -46 -42 21
c-40 20 -43 20 -58 3 -14 -15 -15 -20 -3 -30 18 -18 16 -32 -4 -32 -13 0 -15
-2 -5 -8 7 -5 10 -16 6 -26 -5 -14 -10 -12 -26 15 -16 26 -17 34 -6 41 9 7 8
8 -5 4 -10 -3 -21 -6 -23 -6 -3 0 -2 -5 1 -10 3 -6 -3 -10 -14 -10 -12 0 -21
-4 -21 -10 0 -9 37 -34 52 -35 3 0 10 -4 15 -8 4 -5 4 -8 -2 -7 -21 5 -36 0
-30 -9 7 -13 -28 -32 -41 -23 -16 11 -24 40 -13 46 5 2 4 3 -3 2 -15 -3 -18
-36 -6 -53 5 -6 5 -14 -2 -18 -5 -3 -13 0 -16 8 -4 11 -17 14 -47 11 -44 -4
-66 -17 -48 -28 21 -13 11 -26 -15 -20 -23 6 -25 4 -19 -15 5 -16 2 -21 -11
-21 -10 0 -14 3 -11 7 4 3 -1 12 -11 19 -22 17 -35 18 -27 2 4 -7 0 -5 -8 5
-14 17 -19 17 -73 3 -33 -8 -93 -19 -134 -26 -41 -6 -76 -15 -78 -20 -4 -12
-49 -13 -56 -2 -3 5 -31 9 -63 9 -32 1 -48 -1 -35 -4 12 -2 22 -8 22 -13 0
-12 -34 -7 -45 7 -12 15 -119 36 -151 30 -13 -2 -25 1 -27 6 -2 6 -12 11 -23
13 -10 1 -58 15 -106 32 -77 27 -87 29 -91 14 -4 -13 -5 -12 -6 4 -1 14 -17
29 -54 49 -45 23 -57 26 -76 16 -13 -7 -19 -17 -14 -24 4 -7 -1 -6 -11 2 -13
11 -14 16 -4 22 10 7 10 9 -1 9 -8 0 -11 6 -7 16 4 11 2 15 -8 11 -10 -4 -13
-1 -10 7 5 12 -85 89 -107 92 -5 1 -13 2 -19 3 -5 0 -10 9 -10 19 0 26 -85
102 -114 102 -18 0 -24 4 -20 15 4 8 10 12 15 9 16 -10 10 12 -10 32 -10 11
-31 40 -46 65 -16 24 -38 54 -51 66 -13 12 -19 23 -12 25 7 3 4 10 -6 21 -9 9
-16 20 -15 24 1 4 -8 13 -20 19 -17 9 -19 13 -7 17 12 5 13 11 3 36 -6 17 -17
31 -23 31 -7 0 -10 8 -7 20 6 24 -14 80 -35 98 -11 8 -12 12 -3 12 15 0 6 76
-13 100 -6 8 -20 31 -30 50 l-19 35 20 -18 c12 -10 23 -15 26 -10 9 14 -5 63
-17 63 -6 0 -12 9 -13 20 -1 11 4 20 13 20 8 0 13 3 12 7 -1 5 2 33 5 63 17
137 17 141 -8 168 -14 14 -22 28 -19 32 3 3 11 -3 18 -13 13 -17 42 -25 31 -8
-9 15 15 24 30 11 10 -9 12 -17 5 -30 -5 -9 -6 -20 -3 -24 3 -3 2 -6 -3 -6 -5
0 -10 -30 -10 -67 l-1 -68 49 4 c36 2 54 -2 68 -14 14 -12 19 -13 22 -3 3 7 7
3 10 -10 6 -21 3 -22 -57 -22 -41 0 -65 -4 -68 -12 -3 -7 -6 -3 -6 10 -1 12
-5 22 -10 22 -11 0 -21 -35 -21 -73 0 -31 28 -47 83 -47 42 0 77 -10 77 -21 0
-5 -21 -9 -46 -9 -30 0 -43 -4 -38 -11 4 -8 1 -8 -13 -1 -19 10 -19 8 -11 -51
17 -127 97 -341 124 -330 8 3 14 0 14 -7 0 -6 -4 -8 -10 -5 -5 3 -10 2 -10 -3
0 -13 92 -152 120 -180 12 -13 20 -26 17 -28 -7 -7 -89 102 -132 175 -66 112
-122 275 -140 404 -7 56 -25 63 -25 9 0 -93 77 -315 151 -437 56 -93 118 -170
146 -181 14 -6 28 -19 29 -28 3 -23 32 -66 44 -66 6 0 42 -24 80 -53 132 -101
335 -189 503 -217 90 -16 96 -13 86 47 -11 67 -11 93 1 93 6 0 10 -13 10 -29
0 -19 8 -35 21 -45 15 -10 20 -22 17 -39 -6 -33 30 -55 64 -40 21 9 23 16 20
70 -3 43 -7 60 -18 60 -15 0 -18 -9 -7 -21 4 -3 8 -14 9 -23 2 -14 1 -14 -11
-2 -7 8 -15 30 -18 49 -9 64 -12 66 -107 80 -120 16 -227 50 -328 102 -29 16
-56 28 -61 28 -5 0 -23 14 -41 30 -18 17 -38 30 -45 30 -7 0 -20 12 -30 26
-16 25 -17 25 -31 7 -14 -17 -15 -16 -10 8 4 20 -2 33 -32 62 -21 21 -42 34
-47 30 -4 -5 -5 -3 -1 4 3 7 -11 35 -34 65 -53 71 -115 213 -141 328 -12 52
-28 100 -35 107 -13 13 -9 47 5 39 3 -2 7 36 9 85 2 59 -1 89 -8 89 -7 0 -4 7
4 16 20 19 21 44 2 44 -8 0 -15 8 -15 18 1 9 -2 28 -5 42 -6 25 -6 25 4 2 5
-13 15 -20 21 -16 8 4 7 9 -2 15 -11 6 -10 9 3 14 15 6 15 8 -3 26 -10 10 -21
19 -23 19 -2 0 -12 -31 -21 -70 -11 -45 -22 -70 -31 -70 -8 0 -14 -5 -14 -11
0 -6 -12 -1 -26 10 -33 26 -48 27 -35 2 10 -18 6 -31 -11 -31 -11 0 -10 47 2
71 14 25 33 25 25 -1 -4 -11 -2 -20 4 -20 6 0 11 6 11 14 0 8 3 21 6 29 7 19
-26 32 -38 15 -7 -10 -9 -9 -5 2 2 8 10 15 18 15 24 0 34 27 15 41 -16 11 -16
15 0 63 17 52 31 71 20 26 -4 -14 -2 -25 3 -25 14 0 19 23 9 43 -5 10 -7 28
-3 40 3 12 -3 6 -12 -13 -10 -19 -21 -37 -24 -40 -4 -3 -10 -23 -13 -45 -4
-21 -12 -42 -18 -46 -6 -4 -8 -11 -4 -17 3 -6 2 -14 -4 -17 -6 -4 -10 -3 -9 2
1 4 1 15 0 23 -1 13 -2 13 -11 0 -14 -23 -22 -6 -10 25 6 16 7 31 2 34 -5 3
-14 16 -21 29 -6 12 -16 22 -22 22 -5 0 -14 -10 -18 -22 -7 -17 -5 -26 7 -35
14 -12 14 -13 0 -13 -20 0 -43 -59 -28 -74 13 -13 13 -29 0 -21 -25 15 -54
-271 -30 -300 9 -11 9 -15 1 -15 -7 0 -9 -5 -6 -11 7 -11 15 -60 15 -94 0
-123 120 -423 224 -560 252 -331 627 -512 1056 -508 111 1 153 6 237 28 122
31 245 75 330 117 174 87 392 301 494 486 33 60 36 70 14 52 -12 -10 -18 -10
-30 0 -12 10 -15 9 -15 -8 0 -11 -6 -22 -12 -25 -7 -2 -10 -8 -6 -12 4 -4 14
-2 23 5 12 10 15 10 15 -1 0 -30 -49 -65 -75 -55 -7 2 -16 -1 -19 -9 -3 -9 0
-12 10 -8 7 3 14 1 14 -5 0 -5 -8 -13 -17 -16 -14 -6 -15 -9 -3 -16 11 -7 11
-11 1 -24 -20 -24 -30 -10 -28 35 2 22 0 42 -4 45 -4 2 -19 -14 -34 -36 -32
-46 -36 -47 -52 -21 -11 17 -10 21 6 26 10 3 24 17 31 30 7 14 17 25 22 25 4
0 8 6 8 13 0 6 8 21 17 32 l16 20 -7 -20 -6 -20 16 20 c26 33 36 55 25 55 -7
0 -6 9 1 25 8 18 14 22 19 13 5 -8 12 -3 20 16 10 21 10 32 1 46 -13 21 -6 54
9 44 8 -5 13 8 11 27 -1 4 6 6 15 5 21 -1 49 78 52 147 1 10 5 16 10 13 4 -3
6 6 3 19 -2 14 0 25 5 25 5 0 8 13 5 30 -3 18 0 30 7 30 6 0 11 16 10 38 -2
56 0 65 15 59 7 -3 23 5 35 19 11 13 17 24 12 24 -6 0 -13 -4 -16 -10 -11 -17
-35 -12 -28 7 5 12 3 14 -7 8 -10 -6 -11 -2 -6 19 4 15 2 26 -4 26 -5 0 -8 20
-6 45 2 25 0 45 -5 45 -4 0 -7 21 -6 46 1 30 -3 48 -10 51 -14 6 -18 39 -5 46
4 2 1 2 -5 1 -7 -2 -13 4 -13 14 0 19 -46 135 -80 202 -104 204 -303 401 -513
506 -205 103 -398 141 -642 124z m264 -276 c17 -4 31 -12 31 -18 0 -7 14 -23
31 -35 18 -13 28 -17 23 -10 -17 27 -14 42 5 25 20 -18 36 -21 26 -6 -10 16
15 12 32 -5 8 -8 19 -13 24 -10 5 4 9 0 9 -8 0 -8 6 -20 14 -26 12 -10 14 -8
10 11 -5 20 -4 21 6 6 6 -10 18 -18 27 -18 14 0 14 -2 -1 -19 -11 -12 -15 -27
-12 -39 7 -21 36 -38 36 -21 0 5 -7 12 -15 16 -14 5 -14 8 1 24 9 11 24 19 33
19 12 0 9 -6 -9 -21 -19 -16 -20 -19 -6 -15 21 7 60 -26 48 -40 -4 -5 1 -2 10
5 9 7 22 10 27 7 6 -4 20 -1 31 6 17 11 22 11 30 -2 12 -19 13 -30 1 -30 -5 0
-16 -6 -23 -14 -111 -116 -323 -326 -329 -326 -8 0 -13 15 -10 33 0 4 -3 7 -9
7 -5 0 -10 -17 -10 -38 0 -26 6 -41 19 -49 17 -11 21 -9 26 7 4 11 11 20 17
20 7 0 6 -5 -1 -14 -23 -27 4 -22 34 6 17 16 23 26 14 23 -10 -4 -20 -2 -24 4
-3 6 1 11 9 11 32 0 58 19 48 34 -3 5 2 7 10 3 11 -4 15 0 13 11 -3 19 31 56
44 48 5 -3 11 1 15 9 3 8 13 15 22 15 12 0 15 6 10 23 -7 30 24 58 56 50 20
-6 21 -4 10 9 -11 14 -9 20 9 37 13 12 20 21 16 21 -4 0 8 14 28 31 35 31 36
31 55 14 20 -18 20 -19 -7 -49 -26 -28 -26 -29 -2 -8 14 12 31 22 37 22 12 0
81 -69 82 -82 0 -7 -64 -70 -152 -148 -26 -23 -46 -46 -43 -50 3 -4 -27 -36
-66 -71 -50 -44 -84 -66 -117 -75 l-47 -13 38 0 c21 -1 52 6 68 15 24 12 34
13 45 3 17 -14 19 2 2 20 -11 11 -9 11 12 1 23 -12 24 -12 11 4 -8 9 -10 20
-6 24 4 4 10 1 12 -5 3 -7 14 -13 26 -13 12 0 37 -9 55 -20 39 -24 80 -26 89
-4 3 8 12 13 20 10 8 -3 12 -2 9 3 -3 4 7 6 22 3 l27 -6 -32 -8 c-18 -5 -33
-10 -33 -11 0 -1 31 -3 69 -4 54 -1 69 2 65 12 -3 7 0 16 7 21 7 4 10 3 6 -3
-4 -7 7 -13 28 -17 26 -5 36 -13 40 -31 3 -14 7 -36 10 -49 l5 -23 -285 0
c-157 0 -288 4 -291 9 -3 4 -10 5 -16 2 -13 -8 -167 -15 -189 -8 -13 3 -16 14
-13 47 2 23 4 74 3 112 -1 39 -1 99 -1 135 2 281 1 474 -4 481 -6 11 12 11 55
3z m-355 -49 c-4 -18 -9 -23 -14 -14 -5 7 -3 20 3 30 15 24 20 18 11 -16z
m946 7 c0 -3 -15 -22 -32 -42 l-33 -35 36 33 c41 38 56 36 94 -14 26 -35 27
-36 8 -57 l-18 -22 22 19 c28 24 35 19 102 -78 106 -153 191 -374 206 -536 10
-105 12 -230 3 -230 -5 0 -6 -4 -3 -10 3 -5 2 -10 -4 -10 -5 0 -9 -9 -8 -20 1
-11 4 -20 8 -20 4 0 5 -9 2 -20 -3 -11 -9 -20 -13 -20 -4 0 -6 -13 -5 -30 1
-16 -2 -30 -7 -30 -5 0 -6 -4 -3 -10 3 -5 2 -10 -4 -10 -5 0 -8 -12 -5 -26 4
-20 0 -27 -16 -31 -11 -3 -20 -12 -20 -19 0 -8 -7 -14 -16 -14 -14 0 -13 5 5
35 11 19 16 37 11 40 -5 3 -12 -6 -16 -20 -3 -14 -10 -25 -15 -25 -4 0 -13 -9
-20 -21 -8 -16 -8 -24 2 -33 9 -8 10 -8 4 3 -5 9 -3 12 4 10 21 -7 17 -24 -5
-27 -19 -3 -70 -78 -93 -137 -2 -5 -15 -23 -28 -39 -15 -18 -21 -35 -18 -47 4
-11 2 -19 -4 -19 -6 0 -8 -7 -4 -16 4 -12 0 -15 -23 -12 -22 2 -37 15 -60 51
-17 26 -39 54 -49 61 -17 12 -17 14 3 28 12 8 19 18 16 21 -4 4 -20 -3 -35
-14 -16 -11 -29 -17 -29 -12 0 15 -51 64 -61 57 -5 -3 -8 -2 -7 3 6 17 -30 55
-44 47 -11 -6 -11 -5 0 8 10 13 10 17 -4 22 -9 3 -20 4 -24 1 -5 -3 -12 0 -16
6 -4 8 -3 9 4 5 31 -19 6 14 -43 58 -30 26 -52 52 -49 57 3 5 -1 9 -8 9 -8 0
-32 18 -53 40 -38 39 -38 40 -15 40 14 0 40 -10 59 -23 19 -12 43 -27 53 -33
11 -6 19 -15 20 -20 0 -16 216 -220 228 -216 7 3 16 -2 21 -9 7 -11 13 -9 29
11 11 14 23 34 26 45 4 11 16 32 27 46 11 16 16 32 12 40 -5 8 -4 10 3 5 7 -4
12 -2 12 3 0 19 30 12 31 -6 0 -17 1 -16 8 0 6 18 8 17 31 -3 15 -13 21 -23
14 -26 -13 -5 -7 -44 7 -44 5 0 6 -8 3 -17 -3 -10 1 -7 9 7 10 16 12 27 5 31
-7 5 -7 13 1 25 10 18 10 18 12 -1 1 -28 25 28 59 143 l28 93 -21 9 c-32 12
-40 -1 -36 -59 2 -28 0 -53 -6 -55 -6 -3 -4 -9 4 -14 11 -8 12 -14 4 -24 -6
-7 -13 -24 -15 -38 -2 -18 -9 -25 -27 -26 -24 -1 -24 -1 -5 14 19 14 19 15 -1
8 -26 -9 -26 -9 -52 -1 -13 4 -19 12 -16 21 3 8 0 14 -6 14 -7 0 -6 12 3 38 8
20 17 46 21 57 4 11 9 43 12 70 2 28 7 51 12 53 5 2 7 19 4 39 -4 24 -2 38 8
44 9 6 10 12 4 17 -12 8 -11 4 -19 112 -12 187 -130 419 -280 553 l-65 58 61
63 c43 44 67 62 80 58 10 -2 18 -7 18 -10z m-980 -12 c0 -11 7 -23 15 -26 24
-10 19 -37 -6 -31 -18 5 -17 3 6 -19 14 -13 23 -29 20 -34 -10 -16 -21 -12
-56 23 -18 17 -27 25 -21 15 16 -20 -1 -33 -18 -13 -16 19 -38 8 -35 -18 2
-16 -3 -23 -16 -23 -11 0 -19 7 -19 14 0 9 6 12 16 8 12 -4 15 -2 11 9 -4 8
-2 17 4 21 5 3 7 14 4 24 -3 10 -1 21 4 24 6 4 8 13 4 21 -3 8 -1 15 4 15 13
0 35 -39 28 -50 -8 -13 6 -12 25 0 12 7 12 10 1 10 -8 0 -11 6 -7 17 4 9 1 20
-6 25 -9 5 -4 8 15 8 21 0 27 -5 27 -20z m-105 -10 c-3 -5 -14 -10 -23 -10
-15 0 -15 2 -2 10 20 13 33 13 25 0z m-10 -50 c3 -5 1 -10 -4 -10 -6 0 -11 5
-11 10 0 6 2 10 4 10 3 0 8 -4 11 -10z m854 -39 c10 -17 8 -18 -13 -8 -17 8
-21 14 -13 19 16 10 15 11 26 -11z m-789 -21 c0 -5 -7 -10 -15 -10 -8 0 -15 5
-15 10 0 6 7 10 15 10 8 0 15 -4 15 -10z m85 -20 c3 -5 -1 -10 -9 -10 -9 0
-16 5 -16 10 0 6 4 10 9 10 6 0 13 -4 16 -10z m-142 -30 c3 -11 2 -20 -2 -20
-10 0 -31 37 -24 44 9 9 20 -2 26 -24z m-56 -2 c-3 -8 -6 -5 -6 6 -1 11 2 17
5 13 3 -3 4 -12 1 -19z m144 3 c7 -60 0 -77 -20 -43 -6 10 -11 12 -11 4 0 -7
-4 -10 -10 -7 -12 7 -14 26 -2 24 26 -4 32 2 22 21 -9 16 -8 18 5 14 8 -4 15
-9 16 -13z m54 -10 c3 -5 1 -12 -5 -16 -5 -3 -7 -18 -4 -33 4 -15 4 -24 -1
-20 -10 10 -15 78 -5 78 5 0 11 -4 15 -9z m-500 -10 c10 -17 -12 -21 -25 -6
-10 12 -10 15 3 15 9 0 18 -4 22 -9z m330 -31 c3 -5 1 -10 -4 -10 -6 0 -11 5
-11 10 0 6 2 10 4 10 3 0 8 -4 11 -10z m140 -34 c23 -5 30 -12 31 -30 2 -22
-1 -23 -27 -16 -31 9 -69 40 -48 40 8 0 8 5 -2 18 -12 15 -12 16 1 6 8 -7 29
-15 45 -18z m-65 -39 c0 -16 -3 -18 -12 -9 -17 17 -19 42 -2 35 8 -3 14 -15
14 -26z m-759 -21 c-12 -25 -19 -31 -28 -24 -7 6 -13 20 -12 32 1 19 1 19 8
-3 l6 -23 14 26 c21 38 31 32 12 -8z m579 -31 c19 -19 32 -35 29 -35 -3 0 -20
16 -39 35 -19 19 -32 35 -29 35 3 0 20 -16 39 -35z m-279 -12 c13 -16 12 -17
-3 -4 -10 7 -18 15 -18 17 0 8 8 3 21 -13z m1494 -31 c-3 -3 -11 0 -18 7 -9
10 -8 11 6 5 10 -3 15 -9 12 -12z m-1530 -12 c3 -5 1 -10 -4 -10 -6 0 -11 5
-11 10 0 6 2 10 4 10 3 0 8 -4 11 -10z m400 -30 c21 -22 37 -40 34 -40 -3 0
-23 18 -44 40 -21 22 -37 40 -34 40 3 0 23 -18 44 -40z m1165 10 c0 -5 -4 -10
-10 -10 -5 0 -10 5 -10 10 0 6 5 10 10 10 6 0 10 -4 10 -10z m-1455 -18 c-3
-3 -11 0 -18 7 -9 10 -8 11 6 5 10 -3 15 -9 12 -12z m1412 -4 c-9 -5 -14 -15
-11 -23 4 -8 10 -12 15 -9 5 3 9 0 9 -5 0 -6 7 -11 15 -11 8 0 15 7 15 16 0
13 3 14 13 5 8 -6 17 -8 20 -4 4 3 7 1 7 -6 0 -15 -49 -34 -72 -28 -11 3 -18
0 -18 -10 0 -9 -6 -13 -14 -10 -8 3 -22 -1 -33 -9 -17 -14 -16 -15 10 -9 16 3
35 1 43 -5 7 -7 18 -9 23 -6 5 4 12 2 15 -2 3 -5 -6 -14 -20 -21 -31 -14 -34
-14 -34 0 0 5 5 7 10 4 6 -3 10 -2 10 3 0 15 -31 24 -44 13 -6 -6 -18 -6 -25
-2 -10 7 -11 13 -2 30 7 12 9 26 6 31 -14 23 -13 50 1 50 11 0 13 -6 8 -22 -3
-13 -3 -20 1 -16 5 4 15 2 23 -5 13 -10 15 -9 10 8 -3 11 -9 29 -14 39 -6 16
-4 18 9 13 9 -3 17 -2 17 4 0 6 5 7 11 3 8 -5 7 -10 -4 -16z m73 -8 c0 -5 -2
-10 -4 -10 -3 0 -8 5 -11 10 -3 6 -1 10 4 10 6 0 11 -4 11 -10z m-197 -53 c13
-20 13 -24 1 -24 -8 0 -12 2 -9 5 2 3 0 13 -6 23 -14 27 -4 24 14 -4z m-1792
-49 c11 -21 11 -22 -4 -9 -10 7 -17 17 -17 22 0 15 9 10 21 -13z m96 -10 c-3
-8 -6 -5 -6 6 -1 11 2 17 5 13 3 -3 4 -12 1 -19z m1643 12 c0 -5 -5 -10 -11
-10 -5 0 -7 5 -4 10 3 6 8 10 11 10 2 0 4 -4 4 -10z m280 -20 c0 -10 -38 -1
-45 10 -2 4 7 5 20 2 14 -2 25 -8 25 -12z m-144 -15 c-23 -18 -36 -19 -36 -4
0 5 4 8 8 5 4 -2 14 -1 22 5 23 14 27 10 6 -6z m-1520 -43 c-4 -3 -14 2 -24
12 -16 18 -16 18 6 6 13 -6 21 -14 18 -18z m863 -4 c14 1 23 0 20 -2 -2 -2 -7
-4 -10 -3 -4 1 -16 -6 -27 -16 -19 -18 -22 -18 -44 -3 -12 9 -17 16 -10 16 7
0 10 5 6 11 -4 8 1 9 17 3 13 -4 35 -7 48 -6z m37 -62 c2 -17 -2 -23 -10 -20
-8 3 -11 15 -8 30 5 29 14 24 18 -10z m-1016 14 c0 -5 -2 -10 -4 -10 -3 0 -8
5 -11 10 -3 6 -1 10 4 10 6 0 11 -4 11 -10z m899 -6 c-12 -15 -11 -16 9 -10
17 6 21 4 16 -8 -7 -18 -13 -19 -33 -7 -12 8 -12 12 -2 25 8 9 16 16 18 16 3
0 -1 -7 -8 -16z m-632 -36 c-3 -8 -6 -5 -6 6 -1 11 2 17 5 13 3 -3 4 -12 1
-19z m-290 -40 c-3 -7 -5 -2 -5 12 0 14 2 19 5 13 2 -7 2 -19 0 -25z m1873 5
c0 -3 -7 -15 -17 -25 -14 -16 -15 -18 0 -18 10 0 15 -8 14 -20 -1 -21 -17 -29
-17 -9 0 7 -10 9 -25 7 -22 -5 -24 -3 -13 11 7 9 18 19 23 23 6 4 11 12 11 18
1 5 2 12 3 15 2 8 21 6 21 -2z m-2113 -9 c-3 -3 -12 -4 -19 -1 -8 3 -5 6 6 6
11 1 17 -2 13 -5z m926 -24 c3 -11 1 -20 -4 -20 -5 0 -9 9 -9 20 0 11 2 20 4
20 2 0 6 -9 9 -20z m244 6 c0 -8 -8 -11 -19 -8 -28 7 -32 22 -5 22 13 0 24 -6
24 -14z m267 -37 c-4 -8 -11 -3 -20 12 -16 31 -6 47 13 20 8 -12 11 -26 7 -32z
m616 41 c0 -5 -6 -10 -14 -10 -8 0 -18 5 -21 10 -3 6 3 10 14 10 12 0 21 -4
21 -10z m-1045 -10 c3 -5 1 -10 -4 -10 -6 0 -11 5 -11 10 0 6 2 10 4 10 3 0 8
-4 11 -10z m-30 -10 c3 -5 1 -10 -4 -10 -6 0 -11 5 -11 10 0 6 2 10 4 10 3 0
8 -4 11 -10z m-738 -22 c-3 -8 -6 -5 -6 6 -1 11 2 17 5 13 3 -3 4 -12 1 -19z
m883 -4 c0 -2 -7 -4 -15 -4 -8 0 -15 4 -15 10 0 5 7 7 15 4 8 -4 15 -8 15 -10z
m-120 2 c0 -2 -7 -7 -16 -10 -8 -3 -12 -2 -9 4 6 10 25 14 25 6z m897 -17 c2
-17 -1 -18 -12 -9 -8 7 -12 16 -9 21 9 16 20 10 21 -12z m113 0 c0 -12 -27
-12 -35 1 -4 6 1 7 11 3 13 -5 15 -3 9 7 -5 9 -4 11 3 6 7 -4 12 -11 12 -17z
m-1850 -2 c0 -4 -13 -6 -29 -5 -16 1 -28 5 -26 8 5 8 55 6 55 -3z m1300 1 c0
-6 -3 -8 -7 -5 -3 4 -13 1 -22 -6 -14 -11 -14 -10 -2 6 15 20 31 22 31 5z
m-510 -14 c0 -14 -3 -14 -15 -4 -8 7 -15 14 -15 16 0 2 7 4 15 4 8 0 15 -7 15
-16z m430 6 c0 -5 -7 -10 -15 -10 -8 0 -15 5 -15 10 0 6 7 10 15 10 8 0 15 -4
15 -10z m158 -15 c3 -3 3 -7 0 -10 -7 -7 -68 15 -68 25 0 8 58 -4 68 -15z
m-519 -4 c9 -16 8 -18 -8 -14 -24 6 -36 33 -16 33 8 0 19 -9 24 -19z m1068 4
c0 -8 -4 -12 -9 -9 -5 3 -15 2 -21 -3 -7 -4 -4 0 6 10 23 21 24 21 24 2z
m-1172 -5 c3 -5 1 -10 -4 -10 -6 0 -11 5 -11 10 0 6 2 10 4 10 3 0 8 -4 11
-10z m565 -5 c0 -2 -9 -3 -19 -2 -11 0 -18 5 -15 9 4 6 34 0 34 -7z m-522 -39
c34 -2 62 -1 62 3 0 4 8 7 18 7 9 0 27 4 38 7 17 6 23 3 28 -15 5 -18 8 -20
15 -9 5 8 11 9 15 3 3 -5 -1 -12 -8 -15 -12 -5 -14 -32 -14 -136 1 -112 4
-131 17 -131 14 -1 14 -2 -1 -10 -15 -9 -17 -36 -17 -250 -1 -205 2 -240 14
-240 8 0 15 -4 15 -9 0 -5 -11 -8 -25 -7 -24 1 -25 3 -25 78 0 83 -15 132 -37
124 -20 -8 -28 23 -14 47 10 15 10 21 1 27 -8 5 -7 9 5 14 25 9 43 6 20 -4
-19 -7 -19 -8 -2 -15 24 -10 29 -3 21 29 -5 20 -12 26 -33 26 -19 0 -22 3 -12
9 11 7 12 13 3 23 -15 18 -11 58 5 58 7 0 13 5 13 11 0 5 -4 7 -10 4 -5 -3
-10 -5 -10 -3 -1 2 -3 20 -6 40 -5 31 -3 37 9 32 11 -4 14 2 14 23 0 15 -2 22
-4 16 -8 -23 -21 -14 -18 12 1 14 -2 25 -7 25 -5 0 -6 5 -2 11 8 14 9 118 0
126 -10 10 -56 12 -56 2 0 -5 -15 -9 -32 -8 -27 0 -29 2 -13 8 17 7 15 9 -13
13 -24 3 -32 1 -32 -11 0 -10 -3 -12 -8 -5 -4 6 -39 10 -82 9 -41 -1 -83 2
-92 7 -10 5 -19 4 -23 -2 -9 -14 -91 -6 -111 11 -16 13 -14 15 12 20 16 4 -33
7 -109 6 l-139 0 4 -28 c3 -15 1 -26 -4 -23 -4 3 -8 23 -8 45 l0 39 248 1
c136 1 259 0 275 -1 22 -1 27 3 27 21 0 21 1 21 13 6 9 -13 30 -19 75 -21z
m-940 -21 c-3 -3 -9 2 -12 12 -6 14 -5 15 5 6 7 -7 10 -15 7 -18z m127 -54 c3
-6 19 -56 36 -113 53 -179 172 -394 204 -368 8 7 15 7 19 1 4 -5 -2 -15 -11
-21 -13 -8 -14 -13 -5 -16 6 -3 10 -10 6 -15 -7 -12 -51 32 -94 95 -61 89
-128 246 -145 339 -4 20 -11 37 -16 37 -5 0 -6 6 -3 14 3 8 1 24 -6 35 -11 21
3 31 15 12z m92 -18 c-4 -3 -1 -13 6 -21 10 -13 9 -14 -12 -3 -19 10 -21 15
-10 22 17 10 25 12 16 2z m1008 -3 c3 -6 -1 -7 -9 -4 -18 7 -21 14 -7 14 6 0
13 -4 16 -10z m20 -30 c3 -5 -1 -10 -10 -10 -9 0 -13 5 -10 10 3 6 8 10 10 10
2 0 7 -4 10 -10z m-1244 -17 c13 -16 12 -17 -3 -4 -10 7 -18 15 -18 17 0 8 8
3 21 -13z m186 -15 c-3 -7 -5 -2 -5 12 0 14 2 19 5 13 2 -7 2 -19 0 -25z m30
-78 l1 -35 -13 35 c-19 49 -19 66 -2 48 8 -7 14 -29 14 -48z m663 -30 c0 -5
-7 -10 -16 -10 -8 0 -12 5 -9 10 3 6 10 10 16 10 5 0 9 -4 9 -10z m-436 -16
c5 -14 4 -15 -9 -4 -17 14 -19 20 -6 20 5 0 12 -7 15 -16z m-171 -35 c7 0 3
-4 -8 -8 -15 -6 -23 -3 -32 13 -19 33 -15 42 7 18 12 -12 26 -22 33 -23z m-4
-59 c11 -24 11 -24 -3 -6 -9 11 -16 24 -16 30 0 12 5 7 19 -24z m21 20 c0 -5
-2 -10 -4 -10 -3 0 -8 5 -11 10 -3 6 -1 10 4 10 6 0 11 -4 11 -10z m-255 -11
c4 -6 14 -8 22 -5 8 3 11 1 8 -4 -9 -15 -31 -12 -45 5 -8 9 -9 15 -2 15 6 0
14 -5 17 -11z m2156 -8 c-7 -5 -10 -14 -7 -20 4 -6 3 -11 -3 -11 -14 0 -23 18
-16 30 3 6 14 10 23 10 14 0 14 -2 3 -9z m-886 -31 c3 -5 1 -10 -4 -10 -6 0
-11 5 -11 10 0 6 2 10 4 10 3 0 8 -4 11 -10z m-995 -40 c6 -11 8 -20 6 -20 -3
0 -10 9 -16 20 -6 11 -8 20 -6 20 3 0 10 -9 16 -20z m1860 8 c0 -7 -11 -18
-25 -24 -23 -11 -24 -11 -8 12 17 26 33 32 33 12z m-1360 -12 c0 -2 -8 -10
-17 -17 -16 -13 -17 -12 -4 4 13 16 21 21 21 13z m495 -36 c3 -5 1 -10 -4 -10
-6 0 -11 5 -11 10 0 6 2 10 4 10 3 0 8 -4 11 -10z m35 -3 c0 -18 -21 -37 -39
-37 -13 1 -12 4 4 16 11 8 19 20 18 25 -2 5 2 9 7 9 6 0 10 -6 10 -13z m790
-17 c-24 -15 -37 -11 -16 5 11 8 22 12 25 9 3 -3 -1 -9 -9 -14z m-1769 -17
c13 -16 12 -17 -3 -4 -17 13 -22 21 -14 21 2 0 10 -8 17 -17z m111 -90 c-27
-37 -92 -99 -92 -88 0 9 100 115 108 115 2 0 -6 -12 -16 -27z m568 -14 c0 -18
-2 -20 -15 -9 -13 11 -13 15 -3 21 18 12 18 12 18 -12z m-433 -65 c-3 -3 -12
-4 -19 -1 -8 3 -5 6 6 6 11 1 17 -2 13 -5z m1493 -4 c0 -5 -2 -10 -4 -10 -3 0
-8 5 -11 10 -3 6 -1 10 4 10 6 0 11 -4 11 -10z m1 -47 c-12 -20 -14 -14 -5 12
4 9 9 14 11 11 3 -2 0 -13 -6 -23z m-26 -13 c3 -5 -1 -10 -10 -10 -9 0 -13 5
-10 10 3 6 8 10 10 10 2 0 7 -4 10 -10z m-1485 -31 c102 -69 221 -120 355
-153 67 -17 90 -27 90 -39 0 -9 9 -23 19 -30 17 -13 16 -14 -15 -14 -24 -1
-28 1 -15 6 17 6 16 9 -9 25 -14 10 -33 15 -40 12 -7 -2 -18 1 -24 8 -8 10
-116 42 -128 38 -1 0 -39 17 -83 38 -96 47 -210 118 -210 131 0 15 13 10 60
-22z m438 -3 c12 -3 12 -4 -3 -3 -11 1 -20 9 -21 17 0 8 1 10 3 3 2 -6 12 -14
21 -17z m32 24 c0 -5 -7 -10 -16 -10 -8 0 -12 5 -9 10 3 6 10 10 16 10 5 0 9
-4 9 -10z m-542 -39 c23 -22 97 -67 164 -101 68 -34 112 -59 98 -55 -72 21
-276 140 -309 179 -26 31 5 16 47 -23z m142 13 c0 -2 -9 0 -20 6 -11 6 -20 13
-20 16 0 2 9 0 20 -6 11 -6 20 -13 20 -16z m35 -22 c-3 -3 -11 0 -18 7 -9 10
-8 11 6 5 10 -3 15 -9 12 -12z m64 -28 c14 -12 -19 -1 -35 12 -18 14 -18 14 6
3 14 -6 27 -13 29 -15z m-307 -18 c31 -39 36 -50 26 -53 -5 -2 -8 0 -7 4 0 3
-6 10 -15 15 -9 5 -16 15 -16 23 0 7 -7 21 -16 29 -8 9 -12 16 -7 16 4 0 20
-15 35 -34z m373 -7 c22 -10 29 -16 15 -13 -28 7 -80 33 -65 33 6 0 28 -9 50
-20z m305 -3 c0 -2 -7 -6 -15 -10 -8 -3 -15 -1 -15 4 0 6 7 10 15 10 8 0 15
-2 15 -4z m-242 -109 c12 0 22 -3 22 -8 0 -5 8 -9 17 -9 9 0 14 -3 11 -6 -6
-6 -116 21 -126 31 -4 4 7 3 23 -1 17 -5 40 -8 53 -7z m89 -33 c-3 -3 -12 -4
-19 -1 -8 3 -5 6 6 6 11 1 17 -2 13 -5z m735 -25 c-9 -11 -17 -19 -18 -19 -1
0 -4 8 -7 19 -3 14 1 19 18 19 21 0 22 -2 7 -19z m-185 -31 c-3 -8 -6 -5 -6 6
-1 11 2 17 5 13 3 -3 4 -12 1 -19z m-355 -65 c-6 -3 -10 -9 -6 -14 3 -5 0 -9
-5 -9 -6 0 -11 4 -11 8 0 12 23 32 29 25 3 -3 0 -8 -7 -10z"/>
<path d="M1498 2038 c7 -9 24 -18 38 -21 21 -4 23 -2 12 8 -7 7 -24 16 -38 20
-22 7 -23 6 -12 -7z"/>
<path d="M1580 2041 c0 -5 7 -11 14 -14 10 -4 13 -1 9 9 -6 15 -23 19 -23 5z"/>
<path d="M1480 2001 c0 -12 44 -61 54 -61 4 0 4 5 1 10 -3 6 3 10 14 10 22 0
28 14 11 25 -5 3 -10 1 -10 -6 0 -7 -9 -3 -20 9 -21 22 -50 30 -50 13z"/>
<path d="M1670 1969 c0 -6 -4 -7 -10 -4 -5 3 -10 1 -10 -5 0 -6 -6 -8 -12 -4
-7 4 1 -6 17 -22 24 -23 33 -27 43 -16 7 6 20 12 28 12 8 0 14 5 14 11 0 7 -7
8 -17 4 -22 -8 -41 -13 -30 -8 12 8 8 31 -8 37 -8 3 -15 1 -15 -5z"/>
<path d="M1484 1955 c-12 -31 3 -44 46 -40 23 3 38 0 35 -5 -3 -5 -1 -11 4
-14 14 -9 21 21 7 33 -7 6 -29 8 -51 4 -35 -6 -38 -5 -33 15 7 25 0 30 -8 7z"/>
<path d="M1600 1910 c0 -6 7 -10 15 -10 8 0 15 2 15 4 0 2 -7 6 -15 10 -8 3
-15 1 -15 -4z"/>
<path d="M1494 1888 c-16 -25 -14 -85 3 -99 13 -11 17 -11 20 -1 6 16 23 15
43 -3 14 -13 19 -13 38 1 12 8 22 21 22 27 -1 8 -5 7 -13 -3 -18 -22 -33 -22
-34 0 -1 13 4 19 15 18 33 -2 52 2 52 13 0 5 -4 7 -10 4 -5 -3 -10 3 -10 14 0
11 -5 23 -11 27 -9 5 -10 -1 -5 -22 6 -29 6 -29 -12 -9 -10 11 -27 25 -39 32
-18 10 -22 9 -26 -8 -3 -12 0 -22 9 -26 20 -7 17 -21 -6 -28 -11 -4 -18 -11
-15 -16 4 -5 1 -9 -5 -9 -17 0 -23 26 -10 49 8 16 8 21 -2 21 -9 0 -9 3 2 10
8 5 12 12 8 15 -3 4 -10 0 -14 -7z m61 -78 c3 -6 -1 -7 -9 -4 -18 7 -21 14 -7
14 6 0 13 -4 16 -10z"/>
<path d="M1773 1768 c-46 -46 -86 -87 -90 -93 -4 -5 34 30 85 80 51 49 92 91
92 92 0 7 -11 -3 -87 -79z"/>
<path d="M1642 1650 c-18 -29 -15 -36 8 -15 20 18 26 35 12 35 -4 0 -13 -9
-20 -20z"/>
<path d="M1605 1611 c3 -6 -3 -14 -12 -20 -10 -6 -13 -11 -7 -11 12 0 34 20
34 32 0 4 -5 8 -11 8 -5 0 -8 -4 -4 -9z"/>
<path d="M1779 1593 l-24 -28 28 24 c25 23 32 31 24 31 -2 0 -14 -12 -28 -27z"/>
<path d="M1804 1485 c8 -8 20 -15 27 -15 7 0 4 6 -7 15 -25 19 -40 19 -20 0z"/>
<path d="M1500 1468 c0 -5 18 -8 40 -8 22 0 40 2 40 4 0 2 -18 6 -40 8 -22 2
-40 0 -40 -4z"/>
<path d="M2025 2020 c-21 -22 -35 -43 -31 -47 3 -4 28 14 54 40 28 28 41 47
31 47 -8 0 -32 -18 -54 -40z"/>
<path d="M2106 1934 c-9 -8 -16 -17 -16 -18 0 -2 16 -21 35 -42 49 -54 130
-222 158 -329 18 -66 29 -91 42 -93 15 -4 16 2 10 50 -11 77 -38 157 -90 258
-39 77 -110 190 -120 190 -2 0 -11 -7 -19 -16z"/>
<path d="M2281 1367 c9 -20 16 -23 57 -20 47 4 76 18 66 34 -3 5 -34 9 -69 9
-64 0 -64 0 -54 -23z"/>
<path d="M2280 1255 c0 -39 15 -48 65 -43 53 6 75 22 58 39 -15 15 -92 18 -97
4 -3 -6 -9 -3 -15 5 -9 13 -11 12 -11 -5z"/>
<path d="M2212 974 c6 -13 14 -24 18 -24 14 0 44 29 37 36 -4 4 -7 2 -7 -4 0
-7 -7 -12 -16 -12 -8 0 -13 4 -10 9 3 5 -3 11 -13 14 -17 4 -18 2 -9 -19z"/>
<path d="M2115 849 c-4 -6 -4 -13 -1 -16 3 -4 -1 -15 -11 -25 -9 -10 -13 -19
-10 -19 4 -1 10 -2 15 -3 4 -1 17 -8 29 -16 l21 -16 -24 -23 c-13 -13 -24 -32
-24 -43 0 -14 -5 -18 -15 -14 -9 3 -15 0 -15 -10 0 -11 6 -14 16 -10 9 3 19 6
23 6 10 0 51 75 51 94 0 9 4 16 10 16 5 0 17 14 25 31 15 29 15 32 -2 45 -21
16 -79 18 -88 3z m83 -17 c2 -7 -5 -16 -16 -19 -14 -3 -19 -10 -15 -21 5 -15
4 -15 -12 0 -10 10 -19 26 -20 37 -1 17 4 20 28 18 17 -1 32 -8 35 -15z"/>
<path d="M2080 771 c0 -6 5 -13 10 -16 6 -3 10 1 10 9 0 9 -4 16 -10 16 -5 0
-10 -4 -10 -9z"/>
<path d="M2055 720 c4 -6 11 -8 16 -5 14 9 11 15 -7 15 -8 0 -12 -5 -9 -10z"/>
<path d="M2170 715 c-7 -9 -8 -15 -2 -15 5 0 12 7 16 15 3 8 4 15 2 15 -2 0
-9 -7 -16 -15z"/>
<path d="M750 1148 c0 -4 12 -8 27 -8 14 0 23 3 19 7 -10 10 -46 11 -46 1z"/>
<path d="M1130 868 c0 -8 9 -23 20 -33 11 -10 20 -14 20 -8 0 5 -9 20 -20 33
-14 16 -20 19 -20 8z"/>
<path d="M1150 801 c0 -6 4 -13 10 -16 6 -3 7 1 4 9 -7 18 -14 21 -14 7z"/>
<path d="M1125 780 c3 -5 8 -10 11 -10 2 0 4 5 4 10 0 6 -5 10 -11 10 -5 0 -7
-4 -4 -10z"/>
<path d="M1023 2320 c-91 -24 -217 -74 -265 -106 -21 -13 -42 -24 -48 -24 -5
0 -10 -4 -10 -8 0 -5 -11 -14 -25 -20 -14 -6 -25 -18 -25 -27 0 -22 9 -19 63
19 92 65 341 153 395 139 12 -3 22 -1 22 5 0 6 3 17 6 26 8 21 -21 20 -113 -4z"/>
<path d="M1440 2326 c0 -22 20 -32 88 -44 71 -12 236 -83 305 -131 44 -30 77
-33 77 -7 0 23 -192 126 -295 158 -53 17 -139 37 -157 38 -10 0 -18 -6 -18
-14z"/>
<path d="M543 2115 c-4 -13 2 -25 21 -42 29 -25 52 -31 40 -10 -4 6 6 0 23
-15 45 -43 52 -33 8 12 -22 22 -45 38 -53 35 -7 -2 -11 -1 -8 4 3 5 -1 14 -9
21 -12 10 -16 9 -22 -5z"/>
<path d="M1325 2109 c-4 -6 -5 -12 -2 -15 2 -3 7 2 10 11 7 17 1 20 -8 4z"/>
<path d="M353 2095 c1 -5 -6 -9 -15 -7 -13 2 -18 -4 -18 -18 0 -14 5 -20 18
-18 35 6 63 54 32 54 -10 0 -18 -5 -17 -11z"/>
<path d="M2230 2056 c0 -2 7 -7 16 -10 8 -3 12 -2 9 4 -6 10 -25 14 -25 6z"/>
<path d="M344 2032 c5 -7 -1 -16 -16 -21 -13 -6 -16 -10 -8 -10 8 0 22 4 30 9
13 8 13 11 1 22 -11 10 -12 10 -7 0z"/>
<path d="M1240 1981 c0 -6 4 -13 10 -16 6 -3 7 1 4 9 -7 18 -14 21 -14 7z"/>
<path d="M368 1943 c-19 -23 -31 -43 -24 -43 2 0 14 14 26 30 23 33 22 40 -2
13z"/>
<path d="M399 1882 c-45 -66 -53 -81 -103 -196 -26 -58 -33 -86 -18 -72 4 4 7
13 7 19 0 7 8 13 17 15 15 3 15 -1 5 -27 -7 -20 -18 -31 -31 -31 -19 0 -19 0
-1 -14 18 -13 18 -13 0 -24 -16 -8 -17 -13 -6 -26 11 -13 11 -16 -2 -16 -11 0
-15 -8 -13 -25 4 -42 14 -39 26 6 41 159 115 320 184 397 20 22 20 23 0 42
-19 18 -20 18 -65 -48z m31 -15 c0 -7 -8 -22 -18 -33 -9 -10 -23 -30 -29 -44
-7 -14 -17 -32 -22 -40 -6 -8 -18 -33 -28 -55 -12 -26 -19 -34 -21 -23 -3 17
45 110 60 116 4 2 8 12 8 23 0 10 5 19 10 19 6 0 10 5 10 10 0 9 20 39 28 40
1 0 2 -6 2 -13z"/>
<path d="M1266 1901 c-3 -5 0 -11 7 -14 8 -3 14 1 14 9 0 16 -13 19 -21 5z"/>
<path d="M1321 1874 c0 -11 3 -14 6 -6 3 7 2 16 -1 19 -3 4 -6 -2 -5 -13z"/>
<path d="M1246 1852 c-3 -4 4 -9 15 -9 23 -2 25 3 4 10 -8 4 -16 3 -19 -1z"/>
<path d="M1285 1800 c3 -5 13 -10 21 -10 8 0 12 5 9 10 -3 6 -13 10 -21 10 -8
0 -12 -4 -9 -10z"/>
<path d="M265 1768 c-14 -29 -14 -31 0 -14 8 11 15 24 15 29 0 4 5 5 12 1 7
-4 8 -3 4 4 -11 17 -14 15 -31 -20z"/>
<path d="M1200 1790 c0 -5 5 -10 10 -10 6 0 10 5 10 10 0 6 -4 10 -10 10 -5 0
-10 -4 -10 -10z"/>
<path d="M1200 1627 c0 -19 16 -31 24 -18 3 5 -1 14 -9 21 -12 10 -15 10 -15
-3z"/>
<path d="M1015 1609 c-4 -6 -5 -13 -2 -16 7 -7 27 6 27 18 0 12 -17 12 -25 -2z"/>
<path d="M2450 1589 c0 -5 5 -7 10 -4 6 3 10 8 10 11 0 2 -4 4 -10 4 -5 0 -10
-5 -10 -11z"/>
<path d="M1335 1540 c3 -5 8 -10 11 -10 2 0 4 5 4 10 0 6 -5 10 -11 10 -5 0
-7 -4 -4 -10z"/>
<path d="M2450 1490 c0 -4 6 -13 14 -20 12 -9 15 -8 13 8 -1 17 -27 28 -27 12z"/>
<path d="M2501 1484 c0 -11 3 -14 6 -6 3 7 2 16 -1 19 -3 4 -6 -2 -5 -13z"/>
<path d="M410 1415 c0 -13 4 -14 20 -5 11 6 20 13 20 15 0 3 -9 5 -20 5 -11 0
-20 -7 -20 -15z"/>
<path d="M527 1424 c-8 -8 1 -24 13 -24 4 0 10 7 14 15 5 15 -14 21 -27 9z"/>
<path d="M460 1410 c0 -5 5 -10 10 -10 6 0 10 5 10 10 0 6 -4 10 -10 10 -5 0
-10 -4 -10 -10z"/>
<path d="M988 1413 c6 -2 18 -2 25 0 6 3 1 5 -13 5 -14 0 -19 -2 -12 -5z"/>
<path d="M2510 1346 c0 -2 7 -9 15 -16 13 -11 14 -10 9 4 -5 14 -24 23 -24 12z"/>
<path d="M1661 1315 c9 -11 22 -35 30 -52 8 -18 17 -33 21 -33 13 0 9 17 -7
33 -8 8 -12 17 -10 19 3 3 -7 15 -22 29 -19 16 -23 18 -12 4z"/>
<path d="M2500 1206 c0 -2 7 -9 15 -16 13 -11 14 -10 9 4 -5 14 -24 23 -24 12z"/>
<path d="M2128 1153 c6 -2 18 -2 25 0 6 3 1 5 -13 5 -14 0 -19 -2 -12 -5z"/>
<path d="M1426 1135 c-9 -26 -7 -32 5 -12 6 10 9 21 6 23 -2 3 -7 -2 -11 -11z"/>
<path d="M887 1015 c-10 -7 -14 -16 -9 -19 5 -3 15 1 22 9 17 21 9 27 -13 10z"/>
<path d="M2430 990 c-11 -7 -12 -12 -4 -20 8 -8 13 -6 17 9 3 12 4 21 4 21 -1
0 -9 -5 -17 -10z"/>
<path d="M2460 991 c0 -5 7 -11 15 -15 9 -3 15 0 15 9 0 8 -7 15 -15 15 -8 0
-15 -4 -15 -9z"/>
<path d="M890 976 c0 -2 7 -9 15 -16 9 -7 15 -8 15 -2 0 5 -7 12 -15 16 -8 3
-15 4 -15 2z"/>
<path d="M2472 931 c10 -16 9 -23 -6 -40 -10 -11 -22 -19 -25 -16 -4 2 -13 -6
-20 -17 -12 -19 -11 -20 8 -15 20 5 21 2 16 -31 -5 -34 -4 -35 6 -12 6 14 19
51 29 82 15 49 16 57 3 62 -23 9 -24 7 -11 -13z"/>
<path d="M2435 910 c-3 -5 1 -10 9 -10 9 0 16 5 16 10 0 6 -4 10 -9 10 -6 0
-13 -4 -16 -10z"/>
<path d="M746 903 c-11 -12 -6 -19 16 -20 13 -1 28 -10 35 -19 7 -10 16 -14
20 -11 7 8 -24 40 -49 49 -9 4 -19 4 -22 1z"/>
<path d="M1566 892 c-6 -11 30 -52 45 -52 6 0 8 -7 5 -16 -5 -14 -4 -15 9 -4
14 11 12 15 -14 31 -34 21 -53 46 -27 36 10 -4 15 -3 11 3 -8 12 -22 13 -29 2z"/>
<path d="M2397 884 c-8 -8 1 -24 14 -24 5 0 9 7 9 15 0 15 -12 20 -23 9z"/>
<path d="M710 850 c0 -5 11 -9 24 -8 14 1 22 6 20 10 -7 12 -44 10 -44 -2z"/>
<path d="M2336 848 c3 -4 9 -8 15 -8 5 0 9 4 9 8 0 5 -7 9 -15 9 -8 0 -12 -4
-9 -9z"/>
<path d="M2360 826 c0 -2 7 -7 16 -10 8 -3 12 -2 9 4 -6 10 -25 14 -25 6z"/>
<path d="M2373 766 c4 -11 1 -16 -12 -16 -10 0 -24 -7 -31 -15 -10 -12 -10
-15 3 -15 9 0 19 5 22 10 4 6 11 8 16 4 5 -3 6 -10 3 -16 -4 -6 -1 -9 6 -6 7
2 16 13 21 24 5 15 2 24 -13 33 -18 11 -20 11 -15 -3z"/>
<path d="M583 741 l-22 -19 22 -18 c12 -11 17 -12 10 -4 -10 13 -8 18 8 28 19
12 26 32 12 32 -5 -1 -18 -9 -30 -19z"/>
<path d="M2417 743 c-4 -3 -7 -11 -7 -17 0 -6 5 -5 12 2 6 6 9 14 7 17 -3 3
-9 2 -12 -2z"/>
<path d="M2325 690 c3 -5 8 -10 11 -10 2 0 4 5 4 10 0 6 -5 10 -11 10 -5 0 -7
-4 -4 -10z"/>
<path d="M2283 663 c-15 -5 -17 -23 -4 -23 5 0 11 7 15 15 3 8 4 15 3 14 -1 0
-8 -3 -14 -6z"/>
<path d="M1920 580 c0 -5 5 -10 12 -10 19 0 0 -13 -22 -14 -11 0 -20 -4 -20
-8 0 -5 0 -12 0 -17 0 -5 8 -12 18 -14 16 -4 16 -5 0 -6 -11 -1 -15 -6 -12
-16 4 -8 1 -15 -5 -15 -6 0 -11 5 -11 10 0 6 -5 10 -11 10 -6 0 -9 -9 -6 -20
6 -22 -8 -28 -16 -7 -4 7 -6 6 -6 -5 -1 -11 -7 -15 -21 -11 -11 3 -20 1 -20
-5 0 -6 -9 -8 -20 -5 -11 3 -17 9 -14 14 7 12 2 11 -34 -7 -18 -8 -32 -20 -32
-25 0 -6 -4 -7 -10 -4 -5 3 -10 -2 -10 -12 0 -14 -2 -15 -9 -4 -6 9 -14 10
-22 5 -18 -12 -79 -34 -104 -39 -127 -25 -145 -31 -145 -45 -1 -13 -2 -13 -9
0 -7 11 -24 14 -72 11 -57 -3 -61 -4 -45 -17 16 -11 17 -16 6 -29 -11 -13 -10
-14 4 -9 9 3 16 11 16 18 0 21 20 -19 20 -41 0 -13 5 -23 12 -23 6 0 8 -3 5
-7 -4 -3 -2 -12 4 -20 6 -7 9 -13 6 -13 -3 0 -1 -14 5 -31 l11 -32 72 7 c76 7
198 38 220 56 7 6 17 9 22 8 11 -4 117 44 121 55 2 4 8 7 12 7 12 0 144 83
148 92 2 5 12 8 22 8 9 0 23 7 30 15 7 8 19 15 27 15 13 0 13 -3 3 -15 -7 -8
-8 -15 -4 -15 5 0 15 9 22 20 10 17 10 21 -4 27 -14 5 -13 9 7 24 18 14 20 19
8 19 -20 0 -64 46 -51 54 6 3 13 0 15 -6 4 -8 6 -7 6 4 1 22 -17 32 -33 19
-10 -8 -18 -6 -32 10 -19 22 -19 22 9 17 18 -4 26 -1 24 6 -2 6 -16 11 -30 11
-15 -1 -27 3 -27 7 0 4 -7 8 -15 8 -8 0 -15 -4 -15 -10z m80 -85 c19 -19 32
-35 29 -35 -3 0 -20 16 -39 35 -19 19 -32 35 -29 35 3 0 20 -16 39 -35z m-2
-45 c3 -7 0 -10 -7 -6 -6 4 -11 0 -11 -9 0 -9 -4 -13 -10 -10 -5 3 -23 -1 -39
-10 -22 -11 -29 -21 -26 -36 4 -17 0 -20 -16 -16 -22 6 -89 -21 -89 -35 0 -4
-7 -8 -15 -8 -26 0 -63 -22 -59 -35 3 -7 1 -16 -5 -20 -6 -3 -11 2 -11 12 0
15 -2 16 -10 3 -5 -8 -10 -12 -10 -8 0 4 -13 2 -30 -3 -16 -6 -27 -15 -24 -21
4 -6 -1 -8 -14 -4 -12 4 -38 3 -59 -2 -80 -20 -131 -22 -137 -6 -9 24 4 38 18
18 11 -15 17 -15 82 4 38 11 94 29 124 41 30 12 63 21 73 21 10 0 15 4 12 10
-3 5 0 8 7 5 7 -3 33 13 58 35 25 22 52 40 61 40 9 0 35 8 58 18 32 15 38 21
28 31 -9 10 -6 11 17 8 17 -2 32 -9 34 -17z m-588 -160 c0 -5 -2 -10 -4 -10
-3 0 -8 5 -11 10 -3 6 -1 10 4 10 6 0 11 -4 11 -10z"/>
<path d="M1855 520 c3 -5 11 -10 16 -10 6 0 7 5 4 10 -3 6 -11 10 -16 10 -6 0
-7 -4 -4 -10z"/>
<path d="M1797 496 c-12 -9 -14 -16 -8 -21 6 -3 18 0 26 9 27 27 14 36 -18 12z"/>
<path d="M2070 489 c0 -5 5 -7 10 -4 6 3 10 8 10 11 0 2 -4 4 -10 4 -5 0 -10
-5 -10 -11z"/>
<path d="M2097 404 c-3 -5 1 -15 9 -22 16 -14 18 -5 5 17 -5 7 -11 9 -14 5z"/>
<path d="M1785 220 c-3 -5 -4 -10 -1 -10 2 0 11 -3 20 -6 11 -4 16 -1 16 10 0
18 -25 22 -35 6z"/>
</g>
</svg>
